<svg width="486" height="455" viewBox="0 0 486 455" fill="none" xmlns="http://www.w3.org/2000/svg">
<g clip-path="url(#clip0_513_47616)">
<mask id="mask0_513_47616" style="mask-type:alpha" maskUnits="userSpaceOnUse" x="59" y="44" width="368" height="368">
<circle cx="243" cy="228" r="184" fill="url(#paint0_radial_513_47616)"/>
</mask>
<g mask="url(#mask0_513_47616)">
<g opacity="0.1">
<circle cx="192.911" cy="77.911" r="0.911" fill="#F8F8F8"/>
<circle cx="212.733" cy="77.7328" r="0.7328" fill="#F8F8F8"/>
<circle cx="232.574" cy="77.5744" r="0.5744" fill="#F8F8F8"/>
<circle cx="252.5" cy="77.5" r="0.5" fill="#F8F8F8"/>
<circle cx="272.5" cy="77.5" r="0.5" fill="#F8F8F8"/>
<circle cx="292.5" cy="77.5" r="0.5" fill="#F8F8F8"/>
<circle cx="192.812" cy="97.812" r="0.812" fill="#F8F8F8"/>
<circle cx="212.634" cy="97.6338" r="0.6338" fill="#F8F8F8"/>
<circle cx="232.5" cy="97.5" r="0.5" fill="#F8F8F8"/>
<circle cx="252.5" cy="97.5" r="0.5" fill="#F8F8F8"/>
<circle cx="272.5" cy="97.5" r="0.5" fill="#F8F8F8"/>
<circle cx="292.5" cy="97.5" r="0.5" fill="#F8F8F8"/>
<circle cx="192.733" cy="117.733" r="0.7328" fill="#F8F8F8"/>
<circle cx="212.555" cy="117.555" r="0.5546" fill="#F8F8F8"/>
<circle cx="232.5" cy="117.5" r="0.5" fill="#F8F8F8"/>
<circle cx="252.5" cy="117.5" r="0.5" fill="#F8F8F8"/>
<circle cx="272.5" cy="117.5" r="0.5" fill="#F8F8F8"/>
<circle cx="292.5" cy="117.5" r="0.5" fill="#F8F8F8"/>
<circle cx="192.673" cy="137.673" r="0.6734" fill="#F8F8F8"/>
<circle cx="212.555" cy="137.555" r="0.5546" fill="#F8F8F8"/>
<circle cx="232.5" cy="137.5" r="0.5" fill="#F8F8F8"/>
<circle cx="252.5" cy="137.5" r="0.5" fill="#F8F8F8"/>
<circle cx="272.5" cy="137.5" r="0.5" fill="#F8F8F8"/>
<circle cx="292.5" cy="137.5" r="0.5" fill="#F8F8F8"/>
<circle cx="192.673" cy="157.673" r="0.6734" fill="#F8F8F8"/>
<circle cx="212.574" cy="157.574" r="0.5744" fill="#F8F8F8"/>
<circle cx="232.515" cy="157.515" r="0.515" fill="#F8F8F8"/>
<circle cx="252.5" cy="157.5" r="0.5" fill="#F8F8F8"/>
<circle cx="272.5" cy="157.5" r="0.5" fill="#F8F8F8"/>
<circle cx="292.5" cy="157.5" r="0.5" fill="#F8F8F8"/>
<circle cx="92.6882" cy="177.688" r="1.1882" fill="#F8F8F8"/>
<circle cx="112.589" cy="177.589" r="1.0892" fill="#F8F8F8"/>
<circle cx="132.99" cy="177.99" r="0.9902" fill="#F8F8F8"/>
<circle cx="352.5" cy="177.5" r="0.5" fill="#F8F8F8"/>
<circle cx="372.5" cy="177.5" r="0.5" fill="#F8F8F8"/>
<circle cx="392.5" cy="177.5" r="0.5" fill="#F8F8F8"/>
<circle cx="92.5892" cy="197.589" r="1.0892" fill="#F8F8F8"/>
<circle cx="112.53" cy="197.53" r="1.0298" fill="#F8F8F8"/>
<circle cx="132.951" cy="197.951" r="0.9506" fill="#F8F8F8"/>
<circle cx="352.555" cy="197.555" r="0.5546" fill="#F8F8F8"/>
<circle cx="372.5" cy="197.5" r="0.5" fill="#F8F8F8"/>
<circle cx="392.5" cy="197.5" r="0.5" fill="#F8F8F8"/>
<circle cx="92.5298" cy="217.53" r="1.0298" fill="#F8F8F8"/>
<circle cx="112.99" cy="217.99" r="0.9902" fill="#F8F8F8"/>
<circle cx="132.951" cy="217.951" r="0.9506" fill="#F8F8F8"/>
<circle cx="352.713" cy="217.713" r="0.713" fill="#F8F8F8"/>
<circle cx="372.634" cy="217.634" r="0.6338" fill="#F8F8F8"/>
<circle cx="392.574" cy="217.574" r="0.5744" fill="#F8F8F8"/>
<circle cx="92.9704" cy="237.97" r="0.9704" fill="#F8F8F8"/>
<circle cx="112.951" cy="237.951" r="0.9506" fill="#F8F8F8"/>
<circle cx="132.951" cy="237.951" r="0.9506" fill="#F8F8F8"/>
<circle cx="352.871" cy="237.871" r="0.8714" fill="#F8F8F8"/>
<circle cx="372.792" cy="237.792" r="0.7922" fill="#F8F8F8"/>
<circle cx="392.693" cy="237.693" r="0.6932" fill="#F8F8F8"/>
<circle cx="92.9506" cy="257.951" r="0.9506" fill="#F8F8F8"/>
<circle cx="112.951" cy="257.951" r="0.9506" fill="#F8F8F8"/>
<circle cx="132.97" cy="257.97" r="0.9704" fill="#F8F8F8"/>
<circle cx="352.51" cy="257.51" r="1.01" fill="#F8F8F8"/>
<circle cx="372.911" cy="257.911" r="0.911" fill="#F8F8F8"/>
<circle cx="392.812" cy="257.812" r="0.812" fill="#F8F8F8"/>
<circle cx="92.911" cy="277.911" r="0.911" fill="#F8F8F8"/>
<circle cx="112.951" cy="277.951" r="0.9506" fill="#F8F8F8"/>
<circle cx="132.99" cy="277.99" r="0.9902" fill="#F8F8F8"/>
<circle cx="352.589" cy="277.589" r="1.0892" fill="#F8F8F8"/>
<circle cx="372.51" cy="277.51" r="1.01" fill="#F8F8F8"/>
<circle cx="392.911" cy="277.911" r="0.911" fill="#F8F8F8"/>
<circle cx="192.728" cy="297.728" r="1.2278" fill="#F8F8F8"/>
<circle cx="292.807" cy="297.807" r="1.307" fill="#F8F8F8"/>
<circle cx="192.807" cy="317.807" r="1.307" fill="#F8F8F8"/>
<circle cx="292.906" cy="317.906" r="1.406" fill="#F8F8F8"/>
<circle cx="192.847" cy="337.847" r="1.3466" fill="#F8F8F8"/>
<circle cx="292.965" cy="337.965" r="1.4654" fill="#F8F8F8"/>
<circle opacity="0.3" cx="192.866" cy="357.866" r="1.3664" fill="#F8F8F8"/>
<circle opacity="0.3" cx="212.926" cy="357.926" r="1.4258" fill="#F8F8F8"/>
<circle opacity="0.3" cx="232.965" cy="357.965" r="1.4654" fill="#F8F8F8"/>
<circle opacity="0.3" cx="252.985" cy="357.985" r="1.4852" fill="#F8F8F8"/>
<circle opacity="0.3" cx="272.505" cy="357.505" r="1.505" fill="#F8F8F8"/>
<circle opacity="0.3" cx="292.505" cy="357.505" r="1.505" fill="#F8F8F8"/>
<circle opacity="0.3" cx="192.866" cy="377.866" r="1.3664" fill="#F8F8F8"/>
<circle opacity="0.3" cx="212.926" cy="377.926" r="1.4258" fill="#F8F8F8"/>
<circle opacity="0.3" cx="232.965" cy="377.965" r="1.4654" fill="#F8F8F8"/>
<circle opacity="0.3" cx="252.985" cy="377.985" r="1.4852" fill="#F8F8F8"/>
<circle opacity="0.3" cx="272.505" cy="377.505" r="1.505" fill="#F8F8F8"/>
<circle opacity="0.3" cx="292.505" cy="377.505" r="1.505" fill="#F8F8F8"/>
</g>
</g>
</g>
<mask id="mask1_513_47616" style="mask-type:alpha" maskUnits="userSpaceOnUse" x="59" y="44" width="368" height="368">
<circle cx="243" cy="228" r="184" fill="url(#paint1_radial_513_47616)"/>
</mask>
<g mask="url(#mask1_513_47616)">
<rect x="332.5" y="317" width="120" height="120" rx="24" stroke="#F8F8F8" stroke-opacity="0.1" stroke-width="1.5"/>
<rect x="35" y="20" width="120" height="120" rx="24" stroke="#F8F8F8" stroke-opacity="0.1" stroke-width="1.5"/>
<path d="M148 320.999L157.123 311.914" stroke="#F8F8F8" stroke-width="1.5"/>
<path d="M334.5 138.5L347 126" stroke="#F8F8F8" stroke-width="1.5"/>
</g>
<g filter="url(#filter0_bdi_513_47616)">
<path d="M302.857 236.861L306.662 237.64L311.348 238.6C312.909 238.919 313.69 239.079 314.326 239.304C318.435 240.759 321.079 244.765 320.801 249.116C320.758 249.789 320.598 250.569 320.279 252.13C320.052 253.237 319.939 253.79 319.782 254.282C318.785 257.417 316.274 259.838 313.105 260.72C312.608 260.858 312.051 260.951 310.937 261.137L310.936 261.137L309.215 261.425C307.257 261.752 306.277 261.916 305.316 261.948C302.918 262.03 300.536 261.521 298.382 260.465C297.518 260.041 296.691 259.492 295.038 258.392L294.141 257.795C293.17 257.149 292.684 256.826 292.274 256.482C289.817 254.427 288.527 251.296 288.823 248.107C288.872 247.574 288.989 247.003 289.223 245.86C289.559 244.219 289.727 243.398 289.969 242.731C291.435 238.68 295.386 236.072 299.688 236.316C300.396 236.357 301.216 236.525 302.857 236.861Z" fill="#F8F8F8" fill-opacity="0.01" shape-rendering="crispEdges"/>
</g>
<g filter="url(#filter1_b_513_47616)">
<rect x="173" y="158" width="140" height="140" rx="32" fill="#121212" fill-opacity="0.5" style="mix-blend-mode:luminosity"/>
</g>
<g filter="url(#filter2_bdi_513_47616)">
<rect x="179" y="164" width="128" height="128" rx="26" fill="#282828" fill-opacity="0.7" style="mix-blend-mode:luminosity" shape-rendering="crispEdges"/>
<rect x="179.75" y="164.75" width="126.5" height="126.5" rx="25.25" stroke="url(#paint2_linear_513_47616)" stroke-opacity="0.25" stroke-width="1.5" shape-rendering="crispEdges"/>
</g>
<path opacity="0.8" d="M204.58 207C204.433 207 204.313 206.953 204.22 206.86C204.127 206.767 204.08 206.647 204.08 206.5V203.96C204.08 203.827 204.127 203.713 204.22 203.62C204.313 203.513 204.433 203.46 204.58 203.46H207.1C207.247 203.46 207.367 203.513 207.46 203.62C207.567 203.713 207.62 203.827 207.62 203.96V206.5C207.62 206.647 207.567 206.767 207.46 206.86C207.367 206.953 207.247 207 207.1 207H204.58ZM210.264 207C210.117 207 209.997 206.953 209.904 206.86C209.81 206.767 209.764 206.647 209.764 206.5V203.96C209.764 203.827 209.81 203.713 209.904 203.62C209.997 203.513 210.117 203.46 210.264 203.46H212.784C212.93 203.46 213.05 203.513 213.144 203.62C213.25 203.713 213.304 203.827 213.304 203.96V206.5C213.304 206.647 213.25 206.767 213.144 206.86C213.05 206.953 212.93 207 212.784 207H210.264ZM215.947 207C215.801 207 215.681 206.953 215.587 206.86C215.494 206.767 215.447 206.647 215.447 206.5V203.96C215.447 203.827 215.494 203.713 215.587 203.62C215.681 203.513 215.801 203.46 215.947 203.46H218.467C218.614 203.46 218.734 203.513 218.827 203.62C218.934 203.713 218.987 203.827 218.987 203.96V206.5C218.987 206.647 218.934 206.767 218.827 206.86C218.734 206.953 218.614 207 218.467 207H215.947Z" fill="#F8F8F8" fill-opacity="0.95"/>
<rect opacity="0.5" x="203" y="224" width="28" height="4" rx="1" fill="#F8F8F8"/>
<rect opacity="0.1" x="203" y="230" width="52" height="4" rx="1" fill="#F8F8F8"/>
<rect opacity="0.1" x="203" y="236" width="28" height="4" rx="1" fill="#F8F8F8"/>
<g filter="url(#filter3_bdi_513_47616)">
<path d="M297.399 251.206L307.149 244.005C309.475 242.287 312.781 243 314.192 245.525C315.68 248.187 314.505 251.551 311.683 252.709L300.54 257.279C300.185 257.425 299.801 257.482 299.419 257.448C296.802 257.21 295.327 254.324 296.667 252.063L296.747 251.928C296.914 251.646 297.136 251.4 297.399 251.206Z" fill="#F8F8F8" fill-opacity="0.01" shape-rendering="crispEdges"/>
</g>
<g clip-path="url(#clip1_513_47616)">
<g filter="url(#filter4_bdi_513_47616)">
<rect x="286.132" y="182" width="63.3643" height="45.7417" rx="16" transform="rotate(11.5746 286.132 182)" fill="#F8F8F8" fill-opacity="0.01" shape-rendering="crispEdges"/>
</g>
<g filter="url(#filter5_f_513_47616)">
<rect x="266.255" y="139.369" width="70.6755" height="70.6755" rx="35.3378" transform="rotate(11.5746 266.255 139.369)" fill="#F8F8F8" fill-opacity="0.2"/>
</g>
<g filter="url(#filter6_bdd_513_47616)">
<rect x="299.751" y="206.604" width="7.31126" height="12.1854" rx="3.65563" transform="rotate(11.5746 299.751 206.604)" fill="url(#paint3_linear_513_47616)" shape-rendering="crispEdges"/>
</g>
<g filter="url(#filter7_bdd_513_47616)">
<rect x="316.463" y="210.027" width="7.31126" height="12.1854" rx="3.65563" transform="rotate(11.5746 316.463 210.027)" fill="url(#paint4_linear_513_47616)" shape-rendering="crispEdges"/>
</g>
</g>
<path d="M24.5626 351.293L111.064 351.293C115.307 351.293 119.377 349.607 122.377 346.607L181.419 287.565" stroke="url(#paint5_linear_513_47616)" stroke-opacity="0.1" stroke-width="1.5"/>
<path opacity="0.3" d="M121.227 449.082L121.227 361.456C121.227 357.212 122.912 353.143 125.913 350.142L184.601 291.454" stroke="#F8F8F8" stroke-opacity="0.05" stroke-width="1.5"/>
<path d="M461.519 104.789L375.018 104.789C370.774 104.789 366.705 106.475 363.704 109.475L304.662 168.517" stroke="url(#paint6_linear_513_47616)" stroke-opacity="0.1" stroke-width="1.5"/>
<path opacity="0.3" d="M364.855 7L364.855 94.6263C364.855 98.8698 363.169 102.939 360.169 105.94L301.48 164.628" stroke="#F8F8F8" stroke-opacity="0.05" stroke-width="1.5"/>
<defs>
<filter id="filter0_bdi_513_47616" x="274.158" y="221.678" width="61.2851" height="89.0205" filterUnits="userSpaceOnUse" color-interpolation-filters="sRGB">
<feFlood flood-opacity="0" result="BackgroundImageFix"/>
<feGaussianBlur in="BackgroundImageFix" stdDeviation="7.31126"/>
<feComposite in2="SourceAlpha" operator="in" result="effect1_backgroundBlur_513_47616"/>
<feColorMatrix in="SourceAlpha" type="matrix" values="0 0 0 0 0 0 0 0 0 0 0 0 0 0 0 0 0 0 127 0" result="hardAlpha"/>
<feMorphology radius="19.4967" operator="erode" in="SourceAlpha" result="effect2_dropShadow_513_47616"/>
<feOffset dy="38.9934"/>
<feGaussianBlur stdDeviation="14.6225"/>
<feComposite in2="hardAlpha" operator="out"/>
<feColorMatrix type="matrix" values="0 0 0 0 0 0 0 0 0 0 0 0 0 0 0 0 0 0 0.4 0"/>
<feBlend mode="multiply" in2="effect1_backgroundBlur_513_47616" result="effect2_dropShadow_513_47616"/>
<feBlend mode="normal" in="SourceGraphic" in2="effect2_dropShadow_513_47616" result="shape"/>
<feColorMatrix in="SourceAlpha" type="matrix" values="0 0 0 0 0 0 0 0 0 0 0 0 0 0 0 0 0 0 127 0" result="hardAlpha"/>
<feOffset/>
<feGaussianBlur stdDeviation="4.87417"/>
<feComposite in2="hardAlpha" operator="arithmetic" k2="-1" k3="1"/>
<feColorMatrix type="matrix" values="0 0 0 0 0.972549 0 0 0 0 0.972549 0 0 0 0 0.972549 0 0 0 0.25 0"/>
<feBlend mode="normal" in2="shape" result="effect3_innerShadow_513_47616"/>
</filter>
<filter id="filter1_b_513_47616" x="169" y="154" width="148" height="148" filterUnits="userSpaceOnUse" color-interpolation-filters="sRGB">
<feFlood flood-opacity="0" result="BackgroundImageFix"/>
<feGaussianBlur in="BackgroundImageFix" stdDeviation="2"/>
<feComposite in2="SourceAlpha" operator="in" result="effect1_backgroundBlur_513_47616"/>
<feBlend mode="normal" in="SourceGraphic" in2="effect1_backgroundBlur_513_47616" result="shape"/>
</filter>
<filter id="filter2_bdi_513_47616" x="167" y="152" width="152" height="180" filterUnits="userSpaceOnUse" color-interpolation-filters="sRGB">
<feFlood flood-opacity="0" result="BackgroundImageFix"/>
<feGaussianBlur in="BackgroundImageFix" stdDeviation="6"/>
<feComposite in2="SourceAlpha" operator="in" result="effect1_backgroundBlur_513_47616"/>
<feColorMatrix in="SourceAlpha" type="matrix" values="0 0 0 0 0 0 0 0 0 0 0 0 0 0 0 0 0 0 127 0" result="hardAlpha"/>
<feMorphology radius="16" operator="erode" in="SourceAlpha" result="effect2_dropShadow_513_47616"/>
<feOffset dy="32"/>
<feGaussianBlur stdDeviation="12"/>
<feComposite in2="hardAlpha" operator="out"/>
<feColorMatrix type="matrix" values="0 0 0 0 0 0 0 0 0 0 0 0 0 0 0 0 0 0 0.4 0"/>
<feBlend mode="multiply" in2="effect1_backgroundBlur_513_47616" result="effect2_dropShadow_513_47616"/>
<feBlend mode="normal" in="SourceGraphic" in2="effect2_dropShadow_513_47616" result="shape"/>
<feColorMatrix in="SourceAlpha" type="matrix" values="0 0 0 0 0 0 0 0 0 0 0 0 0 0 0 0 0 0 127 0" result="hardAlpha"/>
<feOffset/>
<feGaussianBlur stdDeviation="4"/>
<feComposite in2="hardAlpha" operator="arithmetic" k2="-1" k3="1"/>
<feColorMatrix type="matrix" values="0 0 0 0 0.972549 0 0 0 0 0.972549 0 0 0 0 0.972549 0 0 0 0.25 0"/>
<feBlend mode="normal" in2="shape" result="effect3_innerShadow_513_47616"/>
</filter>
<filter id="filter3_bdi_513_47616" x="281.54" y="228.442" width="47.9219" height="77.7568" filterUnits="userSpaceOnUse" color-interpolation-filters="sRGB">
<feFlood flood-opacity="0" result="BackgroundImageFix"/>
<feGaussianBlur in="BackgroundImageFix" stdDeviation="7.31126"/>
<feComposite in2="SourceAlpha" operator="in" result="effect1_backgroundBlur_513_47616"/>
<feColorMatrix in="SourceAlpha" type="matrix" values="0 0 0 0 0 0 0 0 0 0 0 0 0 0 0 0 0 0 127 0" result="hardAlpha"/>
<feMorphology radius="19.4967" operator="erode" in="SourceAlpha" result="effect2_dropShadow_513_47616"/>
<feOffset dy="38.9934"/>
<feGaussianBlur stdDeviation="14.6225"/>
<feComposite in2="hardAlpha" operator="out"/>
<feColorMatrix type="matrix" values="0 0 0 0 0 0 0 0 0 0 0 0 0 0 0 0 0 0 0.4 0"/>
<feBlend mode="multiply" in2="effect1_backgroundBlur_513_47616" result="effect2_dropShadow_513_47616"/>
<feBlend mode="normal" in="SourceGraphic" in2="effect2_dropShadow_513_47616" result="shape"/>
<feColorMatrix in="SourceAlpha" type="matrix" values="0 0 0 0 0 0 0 0 0 0 0 0 0 0 0 0 0 0 127 0" result="hardAlpha"/>
<feOffset/>
<feGaussianBlur stdDeviation="4.87417"/>
<feComposite in2="hardAlpha" operator="arithmetic" k2="-1" k3="1"/>
<feColorMatrix type="matrix" values="0 0 0 0 0.972549 0 0 0 0 0.972549 0 0 0 0 0.972549 0 0 0 0.25 0"/>
<feBlend mode="normal" in2="shape" result="effect3_innerShadow_513_47616"/>
</filter>
<filter id="filter4_bdi_513_47616" x="265.261" y="170.305" width="94.6417" height="115.034" filterUnits="userSpaceOnUse" color-interpolation-filters="sRGB">
<feFlood flood-opacity="0" result="BackgroundImageFix"/>
<feGaussianBlur in="BackgroundImageFix" stdDeviation="7.31126"/>
<feComposite in2="SourceAlpha" operator="in" result="effect1_backgroundBlur_513_47616"/>
<feColorMatrix in="SourceAlpha" type="matrix" values="0 0 0 0 0 0 0 0 0 0 0 0 0 0 0 0 0 0 127 0" result="hardAlpha"/>
<feMorphology radius="19.4967" operator="erode" in="SourceAlpha" result="effect2_dropShadow_513_47616"/>
<feOffset dy="38.9934"/>
<feGaussianBlur stdDeviation="14.6225"/>
<feComposite in2="hardAlpha" operator="out"/>
<feColorMatrix type="matrix" values="0 0 0 0 0 0 0 0 0 0 0 0 0 0 0 0 0 0 0.4 0"/>
<feBlend mode="multiply" in2="effect1_backgroundBlur_513_47616" result="effect2_dropShadow_513_47616"/>
<feBlend mode="normal" in="SourceGraphic" in2="effect2_dropShadow_513_47616" result="shape"/>
<feColorMatrix in="SourceAlpha" type="matrix" values="0 0 0 0 0 0 0 0 0 0 0 0 0 0 0 0 0 0 127 0" result="hardAlpha"/>
<feOffset/>
<feGaussianBlur stdDeviation="4.87417"/>
<feComposite in2="hardAlpha" operator="arithmetic" k2="-1" k3="1"/>
<feColorMatrix type="matrix" values="0 0 0 0 0.972549 0 0 0 0 0.972549 0 0 0 0 0.972549 0 0 0 0.25 0"/>
<feBlend mode="normal" in2="shape" result="effect3_innerShadow_513_47616"/>
</filter>
<filter id="filter5_f_513_47616" x="219.446" y="106.741" width="148.676" height="148.676" filterUnits="userSpaceOnUse" color-interpolation-filters="sRGB">
<feFlood flood-opacity="0" result="BackgroundImageFix"/>
<feBlend mode="normal" in="SourceGraphic" in2="BackgroundImageFix" result="shape"/>
<feGaussianBlur stdDeviation="19.4967" result="effect1_foregroundBlur_513_47616"/>
</filter>
<filter id="filter6_bdd_513_47616" x="285.964" y="195.262" width="32.2906" height="36.0879" filterUnits="userSpaceOnUse" color-interpolation-filters="sRGB">
<feFlood flood-opacity="0" result="BackgroundImageFix"/>
<feGaussianBlur in="BackgroundImageFix" stdDeviation="6"/>
<feComposite in2="SourceAlpha" operator="in" result="effect1_backgroundBlur_513_47616"/>
<feColorMatrix in="SourceAlpha" type="matrix" values="0 0 0 0 0 0 0 0 0 0 0 0 0 0 0 0 0 0 127 0" result="hardAlpha"/>
<feOffset dx="-3" dy="5"/>
<feGaussianBlur stdDeviation="3"/>
<feColorMatrix type="matrix" values="0 0 0 0 0 0 0 0 0 0 0 0 0 0 0 0 0 0 0.2 0"/>
<feBlend mode="normal" in2="effect1_backgroundBlur_513_47616" result="effect2_dropShadow_513_47616"/>
<feColorMatrix in="SourceAlpha" type="matrix" values="0 0 0 0 0 0 0 0 0 0 0 0 0 0 0 0 0 0 127 0" result="hardAlpha"/>
<feOffset dx="-1" dy="2"/>
<feGaussianBlur stdDeviation="1.5"/>
<feComposite in2="hardAlpha" operator="out"/>
<feColorMatrix type="matrix" values="0 0 0 0 0 0 0 0 0 0 0 0 0 0 0 0 0 0 0.1 0"/>
<feBlend mode="normal" in2="effect2_dropShadow_513_47616" result="effect3_dropShadow_513_47616"/>
<feBlend mode="normal" in="SourceGraphic" in2="effect3_dropShadow_513_47616" result="shape"/>
</filter>
<filter id="filter7_bdd_513_47616" x="302.677" y="198.686" width="32.2906" height="36.0879" filterUnits="userSpaceOnUse" color-interpolation-filters="sRGB">
<feFlood flood-opacity="0" result="BackgroundImageFix"/>
<feGaussianBlur in="BackgroundImageFix" stdDeviation="6"/>
<feComposite in2="SourceAlpha" operator="in" result="effect1_backgroundBlur_513_47616"/>
<feColorMatrix in="SourceAlpha" type="matrix" values="0 0 0 0 0 0 0 0 0 0 0 0 0 0 0 0 0 0 127 0" result="hardAlpha"/>
<feOffset dx="-3" dy="5"/>
<feGaussianBlur stdDeviation="3"/>
<feColorMatrix type="matrix" values="0 0 0 0 0 0 0 0 0 0 0 0 0 0 0 0 0 0 0.2 0"/>
<feBlend mode="normal" in2="effect1_backgroundBlur_513_47616" result="effect2_dropShadow_513_47616"/>
<feColorMatrix in="SourceAlpha" type="matrix" values="0 0 0 0 0 0 0 0 0 0 0 0 0 0 0 0 0 0 127 0" result="hardAlpha"/>
<feOffset dx="-1" dy="2"/>
<feGaussianBlur stdDeviation="1.5"/>
<feComposite in2="hardAlpha" operator="out"/>
<feColorMatrix type="matrix" values="0 0 0 0 0 0 0 0 0 0 0 0 0 0 0 0 0 0 0.1 0"/>
<feBlend mode="normal" in2="effect2_dropShadow_513_47616" result="effect3_dropShadow_513_47616"/>
<feBlend mode="normal" in="SourceGraphic" in2="effect3_dropShadow_513_47616" result="shape"/>
</filter>
<radialGradient id="paint0_radial_513_47616" cx="0" cy="0" r="1" gradientUnits="userSpaceOnUse" gradientTransform="translate(243 228) rotate(90) scale(184)">
<stop offset="0.433142" stop-color="#737373" stop-opacity="0"/>
<stop offset="1" stop-color="#D9D9D9"/>
</radialGradient>
<radialGradient id="paint1_radial_513_47616" cx="0" cy="0" r="1" gradientUnits="userSpaceOnUse" gradientTransform="translate(243 228) rotate(90) scale(184)">
<stop stop-color="#D9D9D9"/>
<stop offset="1" stop-color="#737373" stop-opacity="0"/>
</radialGradient>
<linearGradient id="paint2_linear_513_47616" x1="243" y1="164" x2="298.683" y2="304.56" gradientUnits="userSpaceOnUse">
<stop stop-color="white" stop-opacity="0.4"/>
<stop offset="0.4" stop-color="white" stop-opacity="0.01"/>
<stop offset="0.6" stop-color="white" stop-opacity="0.01"/>
<stop offset="1" stop-color="white" stop-opacity="0.1"/>
</linearGradient>
<linearGradient id="paint3_linear_513_47616" x1="303.406" y1="206.604" x2="303.406" y2="218.789" gradientUnits="userSpaceOnUse">
<stop stop-color="#F8F8F8" stop-opacity="0.9"/>
<stop offset="1" stop-color="#F8F8F8" stop-opacity="0.3"/>
</linearGradient>
<linearGradient id="paint4_linear_513_47616" x1="320.119" y1="210.027" x2="320.119" y2="222.213" gradientUnits="userSpaceOnUse">
<stop stop-color="#F8F8F8" stop-opacity="0.9"/>
<stop offset="1" stop-color="#F8F8F8" stop-opacity="0.3"/>
</linearGradient>
<linearGradient id="paint5_linear_513_47616" x1="181" y1="290.501" x2="62" y2="351.001" gradientUnits="userSpaceOnUse">
<stop offset="0.481613" stop-color="#F8F8F8"/>
<stop offset="1" stop-color="#F8F8F8" stop-opacity="0"/>
</linearGradient>
<linearGradient id="paint6_linear_513_47616" x1="305" y1="171" x2="426.5" y2="103.5" gradientUnits="userSpaceOnUse">
<stop offset="0.481613" stop-color="#F8F8F8"/>
<stop offset="1" stop-color="#F8F8F8" stop-opacity="0"/>
</linearGradient>
<clipPath id="clip0_513_47616">
<rect width="336" height="336" fill="white" transform="translate(75 60)"/>
</clipPath>
<clipPath id="clip1_513_47616">
<rect x="286.132" y="182" width="63.3643" height="45.5152" rx="16" transform="rotate(11.5746 286.132 182)" fill="white"/>
</clipPath>
</defs>
</svg>
