<svg xmlns="http://www.w3.org/2000/svg" width="25" height="24" viewBox="0 0 25 24" fill="none">
  <g clip-path="url(#clip0_235_1396)">
    <mask id="mask0_235_1396" style="mask-type:luminance" maskUnits="userSpaceOnUse" x="0" y="0" width="25" height="24">
      <path d="M24.5 0H0.5V24H24.5V0Z" fill="white"/>
    </mask>
    <g mask="url(#mask0_235_1396)">
      <path d="M12.5305 24C12.152 24 11.832 23.7259 11.7404 23.3587C11.4482 22.1884 10.8889 20.9437 10.0625 19.625C9.08334 18.0416 7.6875 16.573 5.875 15.2188C4.29859 14.0273 2.72217 13.2148 1.14577 12.7813C0.772406 12.6787 0.5 12.3476 0.5 11.9604C0.5 11.5808 0.761928 11.2535 1.12697 11.1493C2.67254 10.708 4.16146 9.99157 5.59375 9C7.23958 7.85417 8.61458 6.47916 9.71875 4.875C10.6955 3.44598 11.3661 2.03266 11.7304 0.635048C11.8258 0.268914 12.1481 0 12.5265 0C12.9091 0 13.2337 0.27487 13.3268 0.645996C13.537 1.48385 13.8656 2.34144 14.3125 3.21875C14.875 4.30208 15.5937 5.34374 16.4688 6.34375C17.3646 7.32292 18.3646 8.20834 19.4688 9C20.9116 10.0228 22.3784 10.7413 23.8693 11.1557C24.235 11.2573 24.5 11.5829 24.5 11.9625C24.5 12.3478 24.227 12.6761 23.8555 12.778C22.9105 13.037 21.9378 13.4549 20.9376 14.0312C19.7292 14.7396 18.6042 15.5833 17.5624 16.5625C16.5208 17.5208 15.6667 18.5312 15 19.5937C14.172 20.9152 13.612 22.1694 13.3204 23.3567C13.23 23.725 12.9096 24 12.5305 24Z" fill="url(#paint0_linear_235_1396)"/>
    </g>
  </g>
  <defs>
    <linearGradient id="paint0_linear_235_1396" x1="12.5" y1="0" x2="12.5" y2="24" gradientUnits="userSpaceOnUse">
      <stop stop-color="#F8F8F8" stop-opacity="0.9"/>
      <stop offset="1" stop-color="#F8F8F8" stop-opacity="0.3"/>
    </linearGradient>
    <clipPath id="clip0_235_1396">
      <rect width="24" height="24" fill="white" transform="translate(0.5)"/>
    </clipPath>
  </defs>
</svg>