<svg width="40" height="40" viewBox="0 0 40 40" fill="none" xmlns="http://www.w3.org/2000/svg">
    <path d="M16 2.3094C18.4752 0.880338 21.5248 0.880338 24 2.3094L33.3205 7.6906C35.7957 9.11966 37.3205 11.7607 37.3205 14.6188V25.3812C37.3205 28.2393 35.7957 30.8803 33.3205 32.3094L24 37.6906C21.5248 39.1197 18.4752 39.1197 16 37.6906L6.67949 32.3094C4.20428 30.8803 2.67949 28.2393 2.67949 25.3812V14.6188C2.67949 11.7607 4.20428 9.11966 6.67949 7.6906L16 2.3094Z" fill="white" fillOpacity="0.1"/>
    <g clip-path="url(#clip0_269_8392)">
    <mask id="mask0_269_8392" style="mask-type:luminance" maskUnits="userSpaceOnUse" x="8" y="8" width="24" height="24">
    <path d="M32 8H8V32H32V8Z" fill="white"/>
    </mask>
    <g mask="url(#mask0_269_8392)">
    <path d="M20.0305 32C19.652 32 19.332 31.7259 19.2404 31.3587C18.9482 30.1884 18.3889 28.9437 17.5625 27.625C16.5833 26.0416 15.1875 24.573 13.375 23.2188C11.7986 22.0273 10.2222 21.2148 8.64577 20.7813C8.27241 20.6787 8 20.3476 8 19.9604C8 19.5808 8.26193 19.2535 8.62697 19.1493C10.1725 18.708 11.6615 17.9916 13.0937 17C14.7396 15.8542 16.1146 14.4792 17.2187 12.875C18.1955 11.446 18.8661 10.0327 19.2304 8.63505C19.3258 8.26891 19.6481 8 20.0265 8C20.4091 8 20.7337 8.27487 20.8268 8.646C21.037 9.48385 21.3656 10.3414 21.8125 11.2187C22.375 12.3021 23.0937 13.3437 23.9688 14.3438C24.8646 15.3229 25.8646 16.2083 26.9688 17C28.4116 18.0228 29.8784 18.7413 31.3693 19.1557C31.735 19.2573 32 19.5829 32 19.9625C32 20.3478 31.727 20.6761 31.3555 20.778C30.4105 21.037 29.4378 21.4549 28.4376 22.0312C27.2292 22.7396 26.1042 23.5833 25.0624 24.5625C24.0208 25.5208 23.1667 26.5312 22.5 27.5937C21.672 28.9152 21.112 30.1694 20.8204 31.3567C20.73 31.725 20.4096 32 20.0305 32Z" fill="url(#paint0_linear_269_8392)"/>
    </g>
    </g>
    <defs>
    <linearGradient id="paint0_linear_269_8392" x1="20" y1="8" x2="20" y2="32" gradientUnits="userSpaceOnUse">
    <stop stop-color="#F8F8F8" stop-opacity="0.9"/>
    <stop offset="1" stop-color="#F8F8F8" stop-opacity="0.3"/>
    </linearGradient>
    <clipPath id="clip0_269_8392">
    <rect width="24" height="24" fill="white" transform="translate(8 8)"/>
    </clipPath>
    </defs>
</svg>