<svg xmlns="http://www.w3.org/2000/svg" width="24" height="24" viewBox="0 0 24 24" fill="none">
  <g opacity="0.8">
    <path d="M8.96046 3.73693L9.43539 4.3174L8.96046 3.73693ZM11.1874 2.23837L11.3906 2.96033L11.1874 2.23837ZM15.0395 3.73694L15.5145 3.15647H15.5145L15.0395 3.73694ZM12.8126 2.23837L12.6094 2.96033L12.8126 2.23837ZM5.38803 19.9231L5.04754 20.5913L5.38803 19.9231ZM3.75 15.45H4.5H3.75ZM4.07698 18.612L3.40873 18.9525L4.07698 18.612ZM19.923 18.612L20.5913 18.9525L19.923 18.612ZM18.612 19.9231L18.9525 20.5913L18.612 19.9231ZM20.1449 8.63444L19.4212 8.83125L20.1449 8.63444ZM18.4895 6.55966L18.0146 7.14013L18.0146 7.14013L18.4895 6.55966ZM19.6924 7.67968L19.0818 8.11518L19.6924 7.67968ZM3.75 10.2747H3H3.75ZM3.85513 8.63444L4.57885 8.83125L3.85513 8.63444ZM5.51046 6.55966L5.98539 7.14013L5.51046 6.55966ZM4.30757 7.67968L4.91818 8.11518L4.30757 7.67968ZM7.75 15.5C7.33579 15.5 7 15.8358 7 16.25C7 16.6643 7.33579 17 7.75 17V15.5ZM16.25 17C16.6642 17 17 16.6643 17 16.25C17 15.8358 16.6642 15.5 16.25 15.5V17ZM19.5 10.2747V15.45H21V10.2747H19.5ZM15.45 19.5H8.55V21H15.45V19.5ZM4.5 15.45V10.2747H3V15.45H4.5ZM5.98539 7.14013L9.43539 4.3174L8.48553 3.15647L5.03553 5.97919L5.98539 7.14013ZM14.5646 4.3174L18.0146 7.14013L18.9645 5.9792L15.5145 3.15647L14.5646 4.3174ZM9.43539 4.3174C9.98538 3.86741 10.3667 3.55605 10.6847 3.33303C10.9949 3.11544 11.2023 3.0133 11.3906 2.96033L10.9843 1.51641C10.5699 1.63301 10.2052 1.83715 9.82339 2.10495C9.44929 2.36732 9.01843 2.72045 8.48553 3.15647L9.43539 4.3174ZM15.5145 3.15647C14.9816 2.72046 14.5507 2.36732 14.1766 2.10495C13.7948 1.83715 13.4301 1.63301 13.0157 1.51641L12.6094 2.96033C12.7977 3.0133 13.0051 3.11544 13.3153 3.33303C13.6333 3.55605 14.0146 3.86741 14.5646 4.3174L15.5145 3.15647ZM11.3906 2.96033C11.7891 2.84818 12.2109 2.84818 12.6094 2.96033L13.0157 1.51641C12.3515 1.32949 11.6485 1.32949 10.9843 1.51641L11.3906 2.96033ZM8.55 19.5C7.69755 19.5 7.10331 19.4995 6.64068 19.4617C6.1868 19.4246 5.92604 19.3554 5.72852 19.2548L5.04754 20.5913C5.49175 20.8177 5.97189 20.912 6.51853 20.9567C7.05641 21.0006 7.7223 21 8.55 21V19.5ZM3 15.45C3 16.2777 2.99942 16.9436 3.04336 17.4815C3.08803 18.0281 3.18238 18.5083 3.40873 18.9525L4.74524 18.2715C4.6446 18.074 4.57546 17.8132 4.53838 17.3594C4.50058 16.8967 4.5 16.3025 4.5 15.45H3ZM5.72852 19.2548C5.30516 19.0391 4.96095 18.6949 4.74524 18.2715L3.40873 18.9525C3.76825 19.6581 4.34193 20.2318 5.04754 20.5913L5.72852 19.2548ZM19.5 15.45C19.5 16.3025 19.4994 16.8967 19.4616 17.3594C19.4245 17.8132 19.3554 18.074 19.2548 18.2715L20.5913 18.9525C20.8176 18.5083 20.912 18.0281 20.9566 17.4815C21.0006 16.9436 21 16.2777 21 15.45H19.5ZM15.45 21C16.2777 21 16.9436 21.0006 17.4815 20.9567C18.0281 20.912 18.5082 20.8177 18.9525 20.5913L18.2715 19.2548C18.074 19.3554 17.8132 19.4246 17.3593 19.4617C16.8967 19.4995 16.3025 19.5 15.45 19.5V21ZM19.2548 18.2715C19.039 18.6949 18.6948 19.0391 18.2715 19.2548L18.9525 20.5913C19.6581 20.2318 20.2317 19.6581 20.5913 18.9525L19.2548 18.2715ZM21 10.2747C21 9.48 21.0062 8.94352 20.8686 8.43763L19.4212 8.83125C19.4938 9.09856 19.5 9.39782 19.5 10.2747H21ZM18.0146 7.14013C18.6932 7.69538 18.921 7.88965 19.0818 8.11518L20.303 7.24418C19.9986 6.81736 19.5795 6.4824 18.9645 5.9792L18.0146 7.14013ZM20.8686 8.43763C20.7522 8.00949 20.5607 7.6054 20.303 7.24418L19.0818 8.11518C19.2364 8.33191 19.3513 8.57436 19.4212 8.83125L20.8686 8.43763ZM4.5 10.2747C4.5 9.39782 4.50616 9.09856 4.57885 8.83125L3.13141 8.43763C2.99384 8.94352 3 9.48 3 10.2747H4.5ZM5.03553 5.97919C4.4205 6.4824 4.00139 6.81736 3.69697 7.24418L4.91818 8.11518C5.07903 7.88965 5.30675 7.69538 5.98539 7.14013L5.03553 5.97919ZM4.57885 8.83125C4.64871 8.57436 4.7636 8.33191 4.91818 8.11518L3.69697 7.24418C3.43933 7.60541 3.24784 8.00949 3.13141 8.43763L4.57885 8.83125ZM7.75 17H16.25V15.5H7.75V17Z" fill="#F8F8F8" fillOpacity="0.7"/>
  </g>
</svg>