<svg xmlns="http://www.w3.org/2000/svg" width="12" height="12" viewBox="0 0 12 12" fill="none" class="absolute right-[8px] top-[8px]">
    <g opacity="0.5">
        <path fill-rule="evenodd" clip-rule="evenodd" d="M6 0C2.68629 0 0 2.68629 0 6C0 9.31371 2.68629 12 6 12C9.31371 12 12 9.31371 12 6C12 2.68629 9.31371 0 6 0ZM6 4.2C5.77361 4.2 5.57558 4.32516 5.47289 4.51291C5.31387 4.80363 4.94929 4.91041 4.65856 4.75139C4.36784 4.59238 4.26107 4.22779 4.42008 3.93707C4.72478 3.37999 5.31758 3 6 3C6.90885 3 7.54014 3.60386 7.71987 4.3134C7.90055 5.02671 7.62605 5.8578 6.80499 6.26833C6.67936 6.33114 6.6 6.45954 6.6 6.6C6.6 6.93137 6.33138 7.2 6 7.2C5.66863 7.2 5.4 6.93137 5.4 6.6C5.4 6.00502 5.73616 5.4611 6.26833 5.19502C6.54118 5.05859 6.61127 4.82384 6.55661 4.60806C6.50099 4.3885 6.317 4.2 6 4.2ZM6 9C6.33137 9 6.6 8.73137 6.6 8.4C6.6 8.06863 6.33137 7.8 6 7.8C5.66863 7.8 5.4 8.06863 5.4 8.4C5.4 8.73137 5.66863 9 6 9Z" fill="#F8F8F8" fillOpacity="0.5"/>
    </g>
</svg>